<?xml version="1.0" encoding="UTF-8"?>
<!DOCTYPE svg PUBLIC "-//W3C//DTD SVG 1.1//EN" "http://www.w3.org/Graphics/SVG/1.1/DTD/svg11.dtd">
<!-- Creator: CorelDRAW 2018 (64-Bit Evaluation Version) -->
<svg xmlns="http://www.w3.org/2000/svg" xml:space="preserve" width="2010px" height="1360px" version="1.1" style="shape-rendering:geometricPrecision; text-rendering:geometricPrecision; image-rendering:optimizeQuality; fill-rule:evenodd; clip-rule:evenodd"
viewBox="0 0 638.75 432.34"
 xmlns:xlink="http://www.w3.org/1999/xlink">
 <defs>
  <style type="text/css">
   <![CDATA[
    .fil17 {fill:#9F5F2E}
    .fil0 {fill:#9F5F2E;fill-rule:nonzero}
    .fil1 {fill:black;fill-rule:nonzero}
    .fil8 {fill:url(#id0)}
    .fil3 {fill:url(#id1)}
    .fil14 {fill:url(#id2)}
    .fil5 {fill:url(#id3)}
    .fil16 {fill:url(#id4)}
    .fil12 {fill:url(#id5)}
    .fil4 {fill:url(#id6)}
    .fil13 {fill:url(#id7)}
    .fil2 {fill:url(#id8)}
    .fil7 {fill:url(#id9)}
    .fil9 {fill:url(#id10)}
    .fil11 {fill:url(#id11)}
    .fil6 {fill:url(#id12)}
    .fil10 {fill:url(#id13)}
    .fil15 {fill:url(#id14)}
   ]]>
  </style>
  <linearGradient id="id0" gradientUnits="userSpaceOnUse" x1="289.01" y1="65.43" x2="305.77" y2="150.33">
   <stop offset="0" style="stop-opacity:1; stop-color:#0CE30C"/>
   <stop offset="1" style="stop-opacity:1; stop-color:#044D04"/>
  </linearGradient>
  <linearGradient id="id1" gradientUnits="userSpaceOnUse" xlink:href="#id0" x1="283.41" y1="117.46" x2="290.88" y2="324.07">
  </linearGradient>
  <linearGradient id="id2" gradientUnits="userSpaceOnUse" xlink:href="#id0" x1="287.7" y1="15.48" x2="296.92" y2="83.52">
  </linearGradient>
  <linearGradient id="id3" gradientUnits="userSpaceOnUse" xlink:href="#id0" x1="230.93" y1="20.23" x2="253.25" y2="86.01">
  </linearGradient>
  <linearGradient id="id4" gradientUnits="userSpaceOnUse" xlink:href="#id0" x1="242.23" y1="11.64" x2="271.42" y2="341.66">
  </linearGradient>
  <linearGradient id="id5" gradientUnits="userSpaceOnUse" xlink:href="#id0" x1="269.08" y1="135.64" x2="280.43" y2="181.13">
  </linearGradient>
  <linearGradient id="id6" gradientUnits="userSpaceOnUse" xlink:href="#id0" x1="298.03" y1="42.18" x2="323.32" y2="90.39">
  </linearGradient>
  <linearGradient id="id7" gradientUnits="userSpaceOnUse" xlink:href="#id0" x1="309.52" y1="135.44" x2="322.29" y2="178.13">
  </linearGradient>
  <linearGradient id="id8" gradientUnits="userSpaceOnUse" xlink:href="#id0" x1="343.67" y1="240.34" x2="344.5" y2="243.6">
  </linearGradient>
  <linearGradient id="id9" gradientUnits="userSpaceOnUse" xlink:href="#id0" x1="305.9" y1="66.34" x2="326.62" y2="102.24">
  </linearGradient>
  <linearGradient id="id10" gradientUnits="userSpaceOnUse" xlink:href="#id0" x1="273.96" y1="86.18" x2="284.2" y2="166.28">
  </linearGradient>
  <linearGradient id="id11" gradientUnits="userSpaceOnUse" xlink:href="#id0" x1="306.87" y1="122.63" x2="323" y2="153.62">
  </linearGradient>
  <linearGradient id="id12" gradientUnits="userSpaceOnUse" xlink:href="#id0" x1="224.79" y1="52.68" x2="248.88" y2="82.61">
  </linearGradient>
  <linearGradient id="id13" gradientUnits="userSpaceOnUse" xlink:href="#id0" x1="300.87" y1="133.68" x2="310.89" y2="213.95">
  </linearGradient>
  <linearGradient id="id14" gradientUnits="userSpaceOnUse" xlink:href="#id0" x1="258.2" y1="-17.41" x2="269.5" y2="111.09">
  </linearGradient>
 </defs>
 <g id="Layer_x0020_1">
  <metadata id="CorelCorpID_0Corel-Layer"/>
  <g id="_1965429828976">
   <path class="fil0" d="M278.74 406.23l0 5.72c0,2.45 0.03,4.06 0.09,4.84 0.09,1.17 0.29,1.89 0.59,2.15 0.54,0.48 1.85,0.71 3.93,0.71 1.97,0 3.24,-0.3 3.8,-0.91 0.48,-0.52 0.76,-1.17 0.85,-1.95 0.04,-0.32 0.16,-0.48 0.36,-0.48 0.17,0 0.26,0.18 0.26,0.55 0,1.3 -0.17,2.55 -0.49,3.74 -0.13,0.45 -0.39,0.72 -0.78,0.81 -0.15,0.04 -0.58,0.06 -1.27,0.06 -1.73,0 -3.56,-0.03 -5.49,-0.09 -1.93,-0.07 -3.25,-0.1 -3.96,-0.1 -0.2,0 -0.81,0.02 -1.84,0.05 -1.03,0.03 -1.78,0.05 -2.26,0.05 -0.43,0 -0.65,-0.11 -0.65,-0.33 0,-0.15 0.24,-0.25 0.72,-0.29 0.32,-0.04 0.65,-0.08 0.97,-0.1 0.5,-0.11 0.81,-0.7 0.94,-1.79 0.11,-0.84 0.17,-3.15 0.17,-6.92l0 -5.72c0,-3.87 -0.03,-6.17 -0.07,-6.89 -0.04,-0.8 -0.28,-1.34 -0.71,-1.62 -0.35,-0.22 -0.94,-0.33 -1.76,-0.33 -0.37,0 -0.55,-0.09 -0.55,-0.29 0,-0.19 0.24,-0.29 0.71,-0.29 0.57,0 1.39,0.02 2.47,0.05 1.09,0.03 1.75,0.05 1.98,0.05 0.22,0 0.9,-0.02 2.04,-0.05 1.13,-0.03 1.93,-0.05 2.38,-0.05 0.46,0 0.69,0.1 0.69,0.29 0,0.2 -0.2,0.29 -0.59,0.29 -0.47,0 -0.9,0.04 -1.27,0.1 -0.73,0.13 -1.13,0.75 -1.2,1.85 -0.04,0.72 -0.06,3.02 -0.06,6.89z"/>
   <path id="1" class="fil0" d="M311.94 410.98l0 -4.75c0,-3.87 -0.02,-6.17 -0.07,-6.89 -0.06,-1.04 -0.53,-1.65 -1.39,-1.85 -0.31,-0.06 -0.73,-0.1 -1.27,-0.1 -0.37,0 -0.55,-0.09 -0.55,-0.29 0,-0.19 0.24,-0.29 0.71,-0.29 0.63,0 1.51,0.02 2.65,0.05 1.14,0.03 1.84,0.05 2.1,0.05 0.23,0 0.86,-0.02 1.86,-0.05 1.01,-0.03 1.72,-0.05 2.13,-0.05 0.48,0 0.72,0.1 0.72,0.29 0,0.2 -0.18,0.29 -0.52,0.29 -0.26,0 -0.58,0.04 -0.94,0.1 -0.74,0.13 -1.14,0.75 -1.21,1.86 -0.04,0.72 -0.06,3.01 -0.06,6.89l0 4.56c0,3.95 0.84,6.62 2.53,8.01 1.09,0.89 2.44,1.33 4.06,1.33 1.82,0 3.32,-0.58 4.49,-1.75 0.8,-0.81 1.34,-1.96 1.62,-3.45 0.18,-1 0.26,-2.54 0.26,-4.63l0 -4.07c0,-3.88 -0.02,-6.17 -0.06,-6.89 -0.07,-1.05 -0.53,-1.66 -1.4,-1.86 -0.3,-0.06 -0.69,-0.1 -1.17,-0.1 -0.37,0 -0.55,-0.09 -0.55,-0.29 0,-0.19 0.23,-0.29 0.68,-0.29 0.95,0 2.2,0.03 3.74,0.1 0.06,0 0.57,-0.02 1.53,-0.05 0.95,-0.03 1.67,-0.05 2.17,-0.05 0.46,0 0.69,0.1 0.69,0.29 0,0.2 -0.2,0.29 -0.59,0.29 -0.26,0 -0.57,0.04 -0.94,0.1 -0.74,0.13 -1.14,0.75 -1.2,1.85 -0.05,0.72 -0.07,3.02 -0.07,6.89l0 3.48c0,2.21 -0.17,4 -0.52,5.36 -0.48,1.89 -1.33,3.36 -2.57,4.42 -1.82,1.56 -4.07,2.34 -6.76,2.34 -3.16,0 -5.56,-0.75 -7.21,-2.24 -1.93,-1.73 -2.89,-4.6 -2.89,-8.61z"/>
   <path id="2" class="fil0" d="M373.35 400.12l-5.33 7.67c2.1,3.47 4.47,7.28 7.11,11.44 0.54,0.7 1.17,1.15 1.89,1.37 0.43,0.13 0.84,0.19 1.23,0.19 0.28,0 0.43,0.09 0.43,0.26 0,0.22 -0.21,0.33 -0.62,0.33l-0.98 0c-2.4,0 -4.35,-0.03 -5.85,-0.07 -0.73,-0.02 -1.1,-0.13 -1.1,-0.32 0,-0.18 0.15,-0.3 0.44,-0.36 0.29,-0.07 0.32,-0.32 0.08,-0.75 -1.95,-3.49 -3.66,-6.43 -5.14,-8.84l-4.8 7.77c-0.35,0.54 -0.5,1 -0.46,1.36 0.04,0.35 0.35,0.55 0.91,0.59 0.56,0.04 0.85,0.15 0.85,0.32 0,0.2 -0.22,0.3 -0.65,0.3l-0.59 0c-0.02,0 -0.45,-0.02 -1.3,-0.05 -0.84,-0.03 -1.43,-0.05 -1.75,-0.05 -0.22,0 -0.69,0.02 -1.4,0.05 -0.72,0.03 -1.16,0.05 -1.33,0.05l-0.56 0c-0.32,0 -0.48,-0.1 -0.48,-0.3 0,-0.19 0.15,-0.29 0.45,-0.29 0.41,0 0.81,-0.05 1.2,-0.16 0.78,-0.22 1.67,-1.03 2.67,-2.44l6.2 -8.87 -5.58 -9.26c-0.78,-1.3 -1.68,-2.11 -2.7,-2.44 -0.48,-0.15 -0.93,-0.23 -1.37,-0.23 -0.21,0 -0.32,-0.1 -0.32,-0.32 0,-0.17 0.22,-0.26 0.65,-0.26 0.19,0 0.92,0.02 2.19,0.05 1.27,0.03 2.18,0.05 2.75,0.05 0.08,0 0.57,-0.02 1.46,-0.05 0.89,-0.03 1.56,-0.05 2.02,-0.05 0.43,0 0.64,0.1 0.64,0.29 0,0.2 -0.16,0.29 -0.5,0.29 -0.33,0 -0.63,0.05 -0.88,0.14 -0.25,0.08 -0.37,0.25 -0.37,0.51 0,0.22 0.11,0.54 0.33,0.95 0.95,1.64 2.32,4.04 4.12,7.18 1.3,-1.99 2.77,-4.28 4.42,-6.86 0.24,-0.43 0.36,-0.84 0.36,-1.23 0,-0.28 -0.19,-0.48 -0.55,-0.59 -0.29,-0.02 -0.57,-0.04 -0.85,-0.06 -0.39,-0.05 -0.58,-0.15 -0.58,-0.33 0,-0.19 0.22,-0.29 0.68,-0.29 0.48,0 1.1,0.02 1.87,0.05 0.77,0.03 1.23,0.05 1.38,0.05 0.17,0 0.63,-0.02 1.38,-0.05 0.75,-0.03 1.35,-0.05 1.8,-0.05 0.39,0 0.59,0.1 0.59,0.29 0,0.15 -0.24,0.27 -0.72,0.36 -0.32,0.04 -0.65,0.09 -0.97,0.13 -0.5,0.13 -1.29,0.97 -2.37,2.53z"/>
   <path id="3" class="fil0" d="M400.7 410.98l0 -4.75c0,-3.87 -0.02,-6.17 -0.07,-6.89 -0.06,-1.04 -0.53,-1.65 -1.39,-1.85 -0.31,-0.06 -0.73,-0.1 -1.27,-0.1 -0.37,0 -0.55,-0.09 -0.55,-0.29 0,-0.19 0.24,-0.29 0.71,-0.29 0.63,0 1.51,0.02 2.65,0.05 1.14,0.03 1.84,0.05 2.1,0.05 0.23,0 0.86,-0.02 1.86,-0.05 1.01,-0.03 1.72,-0.05 2.13,-0.05 0.48,0 0.72,0.1 0.72,0.29 0,0.2 -0.18,0.29 -0.52,0.29 -0.26,0 -0.58,0.04 -0.94,0.1 -0.74,0.13 -1.14,0.75 -1.21,1.86 -0.04,0.72 -0.06,3.01 -0.06,6.89l0 4.56c0,3.95 0.84,6.62 2.53,8.01 1.09,0.89 2.44,1.33 4.07,1.33 1.81,0 3.31,-0.58 4.48,-1.75 0.8,-0.81 1.34,-1.96 1.62,-3.45 0.18,-1 0.26,-2.54 0.26,-4.63l0 -4.07c0,-3.88 -0.02,-6.17 -0.06,-6.89 -0.07,-1.05 -0.53,-1.66 -1.4,-1.86 -0.3,-0.06 -0.69,-0.1 -1.17,-0.1 -0.37,0 -0.55,-0.09 -0.55,-0.29 0,-0.19 0.23,-0.29 0.68,-0.29 0.96,0 2.2,0.03 3.74,0.1 0.06,0 0.57,-0.02 1.53,-0.05 0.95,-0.03 1.67,-0.05 2.17,-0.05 0.46,0 0.69,0.1 0.69,0.29 0,0.2 -0.2,0.29 -0.59,0.29 -0.26,0 -0.57,0.04 -0.94,0.1 -0.74,0.13 -1.14,0.75 -1.2,1.85 -0.05,0.72 -0.07,3.02 -0.07,6.89l0 3.48c0,2.21 -0.17,4 -0.52,5.36 -0.48,1.89 -1.33,3.36 -2.57,4.42 -1.82,1.56 -4.07,2.34 -6.76,2.34 -3.16,0 -5.56,-0.75 -7.21,-2.24 -1.93,-1.73 -2.89,-4.6 -2.89,-8.61z"/>
   <path id="4" class="fil0" d="M448.72 411.95l0 -5.72c0,-3.87 -0.02,-6.17 -0.07,-6.89 -0.06,-1.04 -0.53,-1.65 -1.39,-1.85 -0.31,-0.06 -0.73,-0.1 -1.27,-0.1 -0.37,0 -0.55,-0.09 -0.55,-0.29 0,-0.19 0.23,-0.29 0.71,-0.29 0.67,0 1.55,0.02 2.63,0.05 1.09,0.03 1.69,0.05 1.82,0.05 0.37,0 1.15,-0.02 2.33,-0.05 1.18,-0.03 1.93,-0.05 2.25,-0.05 2.63,0 4.62,0.47 5.98,1.4 0.55,0.37 1.02,0.92 1.43,1.65 0.52,0.87 0.78,1.8 0.78,2.8 0,2.53 -1.43,4.96 -4.29,7.28 2.37,2.99 3.67,4.61 3.9,4.87 1.26,1.58 2.31,2.81 3.16,3.67 1.19,1.24 2.4,1.98 3.64,2.21 0.26,0.03 0.5,0.05 0.74,0.07 0.37,0.04 0.55,0.14 0.55,0.29 0,0.22 -0.2,0.33 -0.61,0.33l-3.09 0c-1.56,0 -2.72,-0.21 -3.48,-0.62 -1.06,-0.56 -2.54,-2.16 -4.45,-4.78 -0.93,-1.32 -2,-2.81 -3.22,-4.48 -0.13,-0.15 -0.32,-0.23 -0.58,-0.23l-2.83 0c-0.17,0 -0.26,0.09 -0.26,0.26l0 0.45c0,3.66 0.06,5.96 0.17,6.91 0.13,1.09 0.55,1.68 1.26,1.77 0.65,0.09 1.18,0.13 1.59,0.13 0.26,0 0.39,0.09 0.39,0.26 0,0.22 -0.21,0.33 -0.64,0.33 -0.74,0 -1.71,-0.02 -2.91,-0.05 -1.21,-0.03 -1.83,-0.05 -1.87,-0.05 -0.15,0 -0.73,0.02 -1.72,0.05 -1,0.03 -1.75,0.05 -2.25,0.05 -0.43,0 -0.65,-0.11 -0.65,-0.33 0,-0.15 0.24,-0.25 0.72,-0.29 0.32,-0.04 0.65,-0.08 0.97,-0.1 0.5,-0.11 0.82,-0.7 0.95,-1.79 0.1,-0.84 0.16,-3.15 0.16,-6.92zm3.83 -13.03l0 9.88c0,0.33 0.1,0.52 0.3,0.59 0.6,0.21 1.42,0.32 2.47,0.32 1.03,0 1.8,-0.18 2.3,-0.55 1.28,-0.93 1.92,-2.56 1.92,-4.88 0,-2.05 -0.59,-3.62 -1.76,-4.71 -0.93,-0.82 -2,-1.23 -3.21,-1.23 -1.04,0 -1.66,0.06 -1.85,0.19 -0.11,0.07 -0.17,0.2 -0.17,0.39z"/>
   <path id="5" class="fil0" d="M495.86 415.62l0 -2.66c0,-1.15 -0.25,-2.29 -0.75,-3.41 -0.13,-0.26 -0.98,-1.68 -2.55,-4.26 -1.57,-2.58 -2.62,-4.28 -3.17,-5.1 -0.8,-1.19 -1.55,-1.98 -2.24,-2.37 -0.5,-0.28 -0.95,-0.43 -1.36,-0.43 -0.33,0 -0.49,-0.09 -0.49,-0.29 0,-0.19 0.21,-0.29 0.62,-0.29 0.15,0 0.77,0.02 1.87,0.05 1.09,0.03 1.83,0.05 2.22,0.05 0.17,0 0.66,-0.02 1.46,-0.05 0.81,-0.03 1.48,-0.05 2.02,-0.05 0.32,0 0.49,0.1 0.49,0.29 0,0.11 -0.24,0.23 -0.72,0.36 -0.3,0.07 -0.45,0.26 -0.45,0.58 0,0.2 0.13,0.57 0.39,1.11 0.08,0.19 1.92,3.43 5.52,9.72 1.47,-2.65 3.1,-5.63 4.87,-8.94 0.31,-0.67 0.46,-1.24 0.46,-1.69 0,-0.43 -0.21,-0.7 -0.63,-0.8 -0.43,-0.09 -0.64,-0.21 -0.64,-0.34 0,-0.19 0.19,-0.29 0.55,-0.29 0.37,0 0.9,0.02 1.58,0.05 0.68,0.03 1.18,0.05 1.48,0.05 0.24,0 0.83,-0.02 1.77,-0.05 0.94,-0.03 1.51,-0.05 1.71,-0.05 0.39,0 0.58,0.09 0.58,0.26 0,0.22 -0.21,0.32 -0.63,0.32 -0.43,0 -0.9,0.14 -1.41,0.39 -0.5,0.26 -1.1,0.8 -1.77,1.6 -0.52,0.63 -1.62,2.33 -3.28,5.1 -1.66,2.77 -2.65,4.52 -2.95,5.23 -0.33,0.78 -0.49,1.86 -0.49,3.25l0 2.66c0,1.91 0.06,3.15 0.16,3.71 0.13,0.8 0.56,1.24 1.28,1.33 0.64,0.09 1.18,0.13 1.64,0.13 0.36,0 0.53,0.09 0.53,0.26 0,0.22 -0.23,0.33 -0.68,0.33 -0.78,0 -1.76,-0.02 -2.93,-0.05 -1.17,-0.03 -1.85,-0.05 -2.04,-0.05 -0.24,0 -0.87,0.02 -1.89,0.05 -1.02,0.03 -1.74,0.05 -2.18,0.05 -0.47,0 -0.71,-0.11 -0.71,-0.33 0,-0.13 0.24,-0.23 0.71,-0.29 0.31,-0.04 0.62,-0.08 0.95,-0.1 0.6,-0.13 0.94,-0.72 1,-1.79 0.07,-0.93 0.1,-2.01 0.1,-3.25z"/>
   <path class="fil1" d="M227.96 378.36c0,0 -10.29,9.87 -32.58,10.06 -25.86,0.19 -64.06,-20.59 -98.36,-36.39 11.47,-18.47 21.09,-42.65 28.88,-67.68 64,-24.53 88.95,-143.9 36.94,-143.48 -36.86,0.28 -49.73,65.76 -67.37,124.42 -28.85,-5.42 -33.53,-33.93 -26.24,-47.91 -32.39,0.25 -42.92,61.23 18.96,70.57 -7.22,20.22 -15.43,37.82 -24.25,50.71 -1.48,-0.3 -4.45,-1.46 -5.64,-2.06 -6.28,-1.46 -12.22,-2.58 -17.27,-2.55 -26.45,0.23 -40.89,15.47 -39.86,30.93 1.01,17.84 14.78,28.99 34.99,28.84 18.13,-0.12 37.65,-11.88 42.63,-19.63 33.77,25.26 71.47,58.57 105.05,58.32 52.26,-0.42 49.85,-48.52 44.12,-54.15zm-59.94 -222.06c12.18,-0.1 6.24,78.98 -34.55,106.63 15.9,-55.4 25.34,-106.58 34.55,-106.63zm-138.89 213.81c-5.05,0.03 -8.36,-2.91 -8.69,-6.78 -0.32,-5.35 5.58,-7.75 11.23,-8.12 7.43,-0.02 16.98,3.44 16.98,3.44 -2.35,3.01 -9.12,11.36 -19.52,11.46z"/>
   <path id="1" class="fil1" d="M275.69 323.76c-2.31,8.07 -8.75,19.38 -15.29,19.75 -8.92,0.36 -9.31,-12.42 -3.22,-33.85 5.19,-18.74 11.01,-36.06 19.4,-63.11l-37.75 0.28c-4.02,13.4 -19.39,63.11 -19.39,63.11 -3.22,10.14 -11.34,32.79 -20.56,32.85 -8.91,0.06 -9.31,-11.18 -3.22,-32.65 5.48,-18.75 11.01,-36.01 19.4,-63.12l-40.37 0.32c-4.37,13.4 -12.21,38.38 -19.14,61.33 -9,28.59 -8.71,65.15 24.87,64.9 13.08,-0.14 25.47,-13.01 33.95,-26.75 1.32,14.87 8.55,26.39 27.23,26.28 20.8,-0.21 34.85,-30.61 39.78,-47.58l-5.69 -1.76z"/>
   <path id="2" class="fil1" d="M399.31 323.34c-4.07,12.22 -9.35,19.72 -14.7,19.75 -9.81,0.05 -11.06,-8.22 -8.14,-18.66 2.57,-10.14 14.48,-49.12 14.48,-49.12 6.68,-20.28 -0.62,-37.75 -23.51,-37.55 -14.81,0.08 -28.1,15.62 -36.33,27.87l5.83 -19.04 -38.04 0.28 -38.55 125.39 37.75 -0.28 23.76 -76.52c3.78,-12.81 18.18,-32.86 24.72,-32.88 2.97,-0.04 5.98,3.49 3.96,11.86 -0.86,3.86 -6.95,25.57 -13.89,48.82 -3.77,13.11 -15.34,53.87 21.81,53.59 22.29,-0.15 41.61,-34.78 46.54,-51.75l-5.69 -1.76z"/>
   <path id="3" class="fil1" d="M523.23 320.56c-2.91,8.36 -8.75,19.38 -15.29,19.75 -8.92,0.35 -9.31,-12.43 -3.22,-33.85 5.18,-18.8 11.01,-36.06 19.4,-63.16l-37.45 0.28c-0.86,3.01 -2.01,6.28 -3.17,10.14 -3.03,-8.88 -11.11,-17.44 -30.43,-17.28 -46.07,0.35 -86.93,134.4 -25.7,133.87 14.86,-0.08 26.91,-15.03 36,-31.74 0.12,16.05 5.6,31.43 26.06,31.27 20.51,-0.15 34.56,-30.55 39.49,-47.52l-5.69 -1.76zm-78.59 19.32c-16.05,0.13 11.19,-88.91 25.75,-89.05 12.48,-0.09 6.17,26.43 6.17,26.43 0,0 -1.76,6.53 -2.61,9.8 0,0 -15.64,52.73 -29.31,52.82z"/>
   <path id="4" class="fil1" d="M613.49 234.53c-13.92,0.08 -25.71,12.66 -34.24,26.39l6.98 -22.6 -38.63 0.28 -40.01 130.43 38.64 -0.27 22.62 -73.85c8.12,-22.06 21.36,-36.71 28.19,-36.78 10.7,-0.1 10.84,14.16 4.4,26.12 3.59,5.62 32.68,0.94 35.42,-25.25 2.52,-19.95 -14.45,-24.53 -23.37,-24.47z"/>
   <g>
    <path class="fil2" d="M344.84 240.95l-1.61 0.47 -0.35 1.18c0.64,-0.56 1.29,-1.11 1.96,-1.65z"/>
    <path class="fil3" d="M277.33 259.29c3.78,0.69 7.49,1.21 11.13,1.58l5.37 -17.78c-0.52,-0.67 -0.99,-1.4 -1.41,-2.21 -5.83,-11.23 -10,-24.28 -11.36,-38.65 -2.14,-22.62 1.45,-28.13 2.88,-45.66 -1.43,1.81 -3.19,8.46 -3.69,10.48 -0.96,3.8 -1.81,7.45 -2.43,11.37 -2.99,18.85 -1.26,42.48 4.89,60.51 0.93,2.71 2.82,7.51 3.36,10.05 -1.72,-0.85 -3.18,-2.09 -4.48,-3.53l-0.59 1.92c-1.21,3.98 -2.44,7.95 -3.67,11.92z"/>
    <path class="fil4" d="M274.27 75.64c3.93,-1 7.92,-2.34 11.88,-3.43 3.98,-1.08 8.32,-1.74 12.14,-2.95 -6.93,-6.19 -5.64,-5.66 4.5,-5.14 2.95,0.14 6.08,0.51 8.94,0.52 -0.5,-2.21 -2.1,-2.99 -0.96,-4.83 1.89,0.24 7.4,5.2 10.77,6.33l-0.93 -6.2c3.76,1.22 9.27,5.53 12.69,6.27 -4.08,-15.59 -27.9,-20.23 -44.96,-7.75 -4.89,3.58 -11.61,10.73 -14.07,17.18z"/>
    <path class="fil5" d="M209.96 36.58l12.97 1.27 -1.52 3.48c14.27,1.3 6.22,0.18 11.53,4.19 1.36,1.02 2.55,1.55 4.32,2.14 3.65,1.21 7.07,1.86 8.17,4.61l-3.24 2.4c2.54,1.67 17.7,10.48 19.87,11.22 -2.59,-12.65 -13.51,-24.58 -21.37,-28.14l-3.67 -1.82c-0.66,-0.26 -1.29,-0.36 -1.95,-0.64 -7.36,-3.1 -15.85,-3.72 -23.08,-0.28 -1.6,0.76 -1.5,0.93 -2.03,1.57z"/>
    <path class="fil6" d="M202.14 73.45l11.2 -5.63c0.26,1.31 0.03,2.35 0.79,3.41 9.39,-5.7 6.51,-3.02 10.82,-2.68 4.97,0.4 8.45,-2.9 13.1,-1.47l-0.88 3.93 21.23 -1.51c-4.91,-6.92 -19.92,-11.45 -30.08,-11.14 -12.32,0.38 -22.53,6.75 -26.18,15.09z"/>
    <path class="fil7" d="M286.43 79.8l17.93 3.79 -0.44 -3.32c4.71,-0.27 5,1.46 8.29,2.64 5.33,1.91 4.03,-2.49 8.48,0.96 0.38,0.3 2.6,2.29 2.8,2.39 1.62,0.89 1.95,-0.52 4.55,0.16 3.18,0.84 3.55,3.6 6.76,4.84 -4.95,-18.31 -37.5,-23.89 -48.37,-11.46z"/>
    <path class="fil8" d="M291.59 93.16c-0.08,-0.05 -0.19,-0.27 -0.22,-0.2l-0.44 -0.41c-2.61,-2.76 -2.07,-3.51 -6.9,-6.87 -2.5,-1.73 -6.9,-4.23 -10.78,-4.06l7.56 16.33c0.06,0.09 0.14,0.2 0.2,0.28 0.06,0.09 0.16,0.2 0.22,0.27 0.06,0.08 0.18,0.2 0.23,0.27 0.06,0.06 0.16,0.18 0.25,0.26l0.31 -0.73c0.5,-1.52 -0.1,0.49 0.24,-0.74 0.21,-0.77 0.13,-0.73 0.28,-1.45 0.39,-1.92 0.04,-1.57 1.32,-2.32 0.07,0.1 0.15,0.14 0.18,0.32l1.96 7.24c0.58,2.45 1.54,5.11 1.99,7.49 0.1,-0.08 0.25,-0.33 0.29,-0.25 0.06,0.09 0.37,-0.3 0.55,-0.5 0.01,-0.01 0.61,-0.74 0.63,-0.76 0.61,-0.9 0.52,-0.88 0.81,-1.77 0.8,1.08 2.06,7.99 2.26,9.21 1.35,-0.67 0.64,-0.71 2.09,-1.49l2.87 10.72c2.75,-4.33 0.22,-18.03 -2.51,-24.28 -1.03,-2.36 -2.79,-4.78 -3.39,-6.56l2.64 3.83c0.85,-0.77 1.41,-1.55 2.11,-2.26 2.99,1.68 2.67,3.19 3.6,6.46 1.41,4.98 2.33,3.03 5.04,5.32 0.58,1.93 0.46,3.13 0.61,5.18 0.23,3.05 0.66,1.67 2.21,3.16 2.18,2.1 1.34,6.56 1.78,9.51l1.09 -1.42c3.65,-7.53 1.06,-19.78 -3.69,-27.06 -1.56,-2.39 -2.54,-3.03 -4.24,-4.81 -1.74,-1.81 -2.27,-2.85 -4.57,-4.47 -3.19,-2.24 -8.6,-5.09 -13.39,-5.1 0.99,3.15 5.91,8.35 6.81,11.66z"/>
    <path class="fil9" d="M264.34 101.36l6.9 6.07 -1.74 2.52c0.96,0.86 3.72,2.58 4.22,3.22 0.93,1.19 0.94,3.77 1.71,5.21 1.81,3.43 4.48,3.53 5.32,8.29l-2.54 0.92c0.98,2.39 8.47,13.09 9.95,14.19 0.92,-11.75 -5.16,-41.38 -23.82,-40.42z"/>
    <path class="fil10" d="M291.46 148.88c1.16,2.82 5.36,12.87 7.47,15.53l1.72 -1.88c2.29,2.07 1.92,4.11 3.16,7.07 1.55,3.71 3.66,2.08 4.49,5.41 0.28,1.11 0.47,3.56 0.85,4.39 0.73,1.58 1.47,0.74 2.6,2.52 1.27,2.01 0.76,5.6 2.24,7.48 3.5,-7.59 -3.72,-35.02 -22.53,-40.52z"/>
    <path class="fil11" d="M313.97 133.73l6.91 2.29 1.29 -1.96c2.99,-0.1 4.7,1.2 7.21,1.58 -3.52,-5.81 -13.73,-8.55 -21.97,-6.43 -7.63,1.97 -13.69,7.38 -15.7,14.93l14.41 -4.06c-2.54,-2.03 -2.09,-0.45 -3.05,-2.69 2.21,-1.42 7.48,-0.7 10.9,-0.94l0 -2.72z"/>
    <path class="fil12" d="M274.53 155.08c1.44,-0.81 1.64,-1.41 2.69,-2.25 2.02,-1.62 6.89,-5.26 7.69,-6.8 -3.93,-1.16 -5.61,-2.59 -10.92,-1.21 -10.04,2.63 -17.58,14.71 -15.1,22.4l3.95 -4.26c1.28,-1.66 10.11,-11.05 11.85,-11.86l-0.16 3.98z"/>
    <path class="fil13" d="M321.17 160c0.11,-0.06 0.23,-0.17 0.3,-0.22l1.33 -1c0.03,-0.12 0.15,-0.13 0.29,-0.22l4.16 6.51c1.16,-11.01 -9.51,-18.74 -18.31,-20.81 -2.34,-0.55 -6.47,-0.94 -8.92,-0.63l-2.51 0.91c1.86,1.04 3.74,2.47 5.69,3.77 1.46,0.98 4.32,2.88 5.2,3.66 0.95,-1.08 0.31,-0.85 0.86,-2.21 3.49,0.41 3.85,3.09 6.33,4.68 1.69,1.09 3.81,0.11 5.58,5.56z"/>
    <path class="fil14" d="M284.82 50.59l-3.51 -0.94 -2.28 13.06c2.24,-2.13 3.79,-4.12 6.28,-5.97 1.78,-1.33 5.72,-3.87 7.1,-5.19l-3.17 0.1c2.1,-3.77 6.18,-6.88 9.12,-10.57 -0.95,-0.54 -1.47,-0.27 -2.91,-0.25l5.12 -12.47c-5.72,6.57 -12.57,13.77 -15.75,22.23z"/>
    <path class="fil15" d="M247.59 7.44l10.73 9.18 -6.31 2.93c1.27,1.53 8.67,7.2 10.4,8.07 -0.6,0.66 -0.03,0.25 -1.07,0.83 -1.06,0.59 -2.37,0.73 -3.89,1.87l7.28 12.66c4.17,6.48 0.43,4.51 -4.76,3.82 1.07,4.14 3.55,9.1 5.23,12.93 0.9,2.07 1.94,4.05 2.92,6.11 0.74,1.54 2.16,4.88 3.41,5.95 4.23,-22.47 6.4,-70.41 -23.94,-64.35z"/>
    <path class="fil16" d="M253.53 127.74c0.78,-7.99 3.66,-18 6.06,-25.28 3.59,-10.85 5.27,-12.73 9.32,-21.78 -3.52,-6.18 -13.43,-8.57 -21.97,-4.67 -7.71,3.51 -12.28,7.84 -16.68,13.05 -8.17,9.66 -15.71,27.37 -15.47,44.85l2.23 -6.02c0.55,-1.95 1.24,-3.97 1.86,-5.87l4.32 -11.37 0.12 8.78c0.93,-1.17 3.27,-8.25 4.07,-10.43 1.12,-3.08 3.27,-7.02 4.19,-9.66l0.02 7.33c2.55,-2.29 11.11,-17.24 14.43,-19.17 0.86,2.47 -1.39,6.68 -1.92,9.78 1.48,-0.93 4.09,-3.21 5.16,-4.27l9.79 -8.27c2.33,-1.7 3.69,-2.32 7.21,-1.8 -0.36,1.82 -3.55,6.94 -4.62,9.12 -4.31,8.77 -8.26,19.5 -10.78,29.29l-1.96 8.34c-0.97,2.96 -1.67,9.89 -2.07,13.4 -3.67,32.12 1.2,62.23 13.58,91.45 0.95,2.26 1.91,4.29 2.86,6.18l14.61 -0.19 -1.12 -1.67c-14.14,-20.9 -22.59,-45.99 -24.77,-71.66 -0.57,-6.62 -1.3,-31.58 1.29,-36.33l2.16 -0.29c0.66,1.5 -0.06,-0.16 0.16,1.03l0.27 1.08c7.26,-1.15 3.32,-0.59 7.35,0.89 3.02,1.12 5.46,-0.01 7.98,1.91l-1.43 1.95c2.3,0.95 10.4,3.17 13.18,3.56 -1.71,-4.43 -6.77,-8.79 -11.21,-11.2 -5.75,-3.1 -11.31,-3.37 -18.22,-2.06z"/>
   </g>
   <path class="fil17" d="M545.65 133.13c-1.67,0.55 -2.09,0.17 -3.98,5.94l2.53 0.51c2.46,-1.65 3.06,-4.09 1.45,-6.45zm-11.75 75.9c0.03,-1.62 0.09,-0.55 0.69,-1.41 4.41,0.8 1.73,2.81 1.73,3.26l-1.97 -0.15c-0.23,-0.51 -0.47,-0.54 -0.45,-1.7zm-6.68 -3.79c-0.75,2.32 -4.99,1.59 -4.38,-1.4 0.64,-3.15 5.47,-2.04 4.38,1.4zm-14.52 26.31c-0.76,-1.47 -0.85,-2.66 -0.45,-4.53 1.76,-0.43 2.99,-0.34 4.54,0.37 1.14,4.04 -0.18,5.07 -4.09,4.16zm1 -19.2c-2.9,2.28 -6.85,1.63 -5.49,-2.52 0.84,-2.57 5.85,-3.43 5.49,2.52zm9.54 5.39c-0.7,3.85 -8.07,2.91 -6.28,-2.01 1.25,-3.45 7.07,-2.35 6.28,2.01zm11.16 8.83c-0.74,5.45 -10.39,4.74 -9.2,-2 0.98,-5.61 10.09,-4.64 9.2,2zm-78.12 -71.91c-7.58,0.96 -15.28,2.95 -22.52,4.95 -3.95,1.09 -3.37,0.75 -6.69,-1.28 -3.82,-2.34 -7.79,-4.38 -12.15,-6.26 -4.02,-1.73 -10.94,-3.36 -13.97,-4.94 8.23,-3.84 32.15,-0.07 42.56,2.82 2.3,0.63 3.93,1.08 6.27,1.82 2.56,0.8 4.56,1.2 6.5,2.89zm7.7 21.32c-7.14,3.15 -23.16,6.75 -31.92,9.14 -18.75,5.11 -43.97,13.42 -62.86,19.5 -7.28,2.34 -24.16,8.47 -30.71,9.28 8.67,-11.21 103.3,-37.42 125.49,-37.92zm-38.16 -14.79c-3.69,2.89 -91.79,27.28 -102.4,28.56 4.03,-3.99 20.41,-13.48 26.65,-16.8 8.7,-4.61 20.42,-10.24 29.95,-13.06 -10.05,0.84 -32.86,10.31 -41.48,14.77 -6.37,3.29 -32.15,19.38 -36.07,20 1.53,-4.16 20.14,-15.09 24.95,-17.87 8.99,-5.18 18.55,-11.21 28.67,-15.47 28.44,-11.97 42.04,-12.85 69.73,-0.13zm-138 75.23c4.91,1.42 10.03,0.84 15.06,0.25 2.96,-0.35 8.16,-0.94 10.92,-2.16l0.97 -0.59c-12.44,-4.73 -16.91,1.76 -26.95,2.5zm215.43 -5.66c-1.63,2.72 -5.14,5.21 -9.41,7.38l-11.47 0.15 -0.91 3.17c-1.26,-1.36 -2.65,-2.57 -4.13,-3.63 14.27,-1.42 15.9,-4.14 25.92,-7.07zm-76.9 12.56c-28.38,-8.89 -44.48,-27.73 -80.82,-11.12 21.11,-2.88 26.63,-4.97 46.19,4.1 7.06,3.27 11.3,6.7 18.21,9.76 3.39,1.51 6.85,2.62 10.38,3.64 -0.86,1.02 -1.71,2.07 -2.53,3.15 -7.02,-0.93 -14.51,-3.2 -22.97,-5.22 -4.32,-9.34 -13.66,-15.45 -28.09,-15.26 -9.2,0.12 -17.56,5.02 -24.68,11.57l0.78 -2.64 -48.19 0.63 -0.85 2.81c-2.69,-0.8 -5.23,-1.75 -7.56,-2.87 -4.69,-2.24 -12.12,-6.87 -12.93,-10.82 7.46,1.68 4.69,3.13 14.01,0.45 4.84,-1.39 8.67,-3.35 14.13,-3.48 12.18,-0.3 16.24,3.94 30.55,0.35 8.66,-2.17 16.07,-6.57 25.82,-8.67 29.64,-6.37 51.35,8.25 80.23,15.24 -4.25,2.16 -8.17,5.09 -11.68,8.38zm69.95 -108.05l-1.91 7.96c13.78,-1.12 21.88,-5.62 42.58,-5.08 3.82,-7.2 7.83,-8.65 -14.86,-6.49 -8.98,0.86 -17.11,2.41 -25.81,3.61zm37.17 11.25l1.46 -4.58c-11.25,-0.07 -30.95,1.07 -41.27,3.92l-1.49 6.12c10.94,-0.17 43.1,-5.03 51.76,0.3 -3.21,9.01 -26.32,37.26 -34.57,46.1l-25.48 23.07c-7.9,5.83 -11.7,8.28 -24.29,8.3 -9.13,0.01 -19.85,-2.28 -27.68,-4.89 -26.43,-8.83 -19.57,-12.55 -51.46,-13.3 11.53,-6.4 14.47,-7.45 27.23,-11.91 31.32,-10.93 68.6,-16.91 101.91,-19.42 3.47,-6.06 8.19,-11.39 11.1,-19.31 -48.14,1.53 -130.27,21.89 -176.21,39.53 -9.56,3.67 -44.25,19.43 -52.26,19.3 6.35,-3.54 14.59,-7.23 21.53,-10.3 43.93,-19.45 73.11,-30.84 120.15,-44.63 18.29,-5.37 35.21,-7.81 54.05,-12.13l1.59 -6.12 -21.68 3.32 21.7 -5.51c1.25,-0.86 2.2,-6.45 2.45,-8.21l-38.07 8.3c2.75,-0.37 13.65,-4.73 18.24,-6.07 6.11,-1.79 14.43,-4.44 20.86,-5.17 0.67,-2.75 0.18,-2.19 1.86,-3.92l3.68 2.57c8.48,-1.76 16.78,-3.18 25.64,-4.17 4.73,-0.52 9.23,-0.79 14.14,-0.72 9.56,0.15 5.64,-5.65 9.39,0.29 0.05,0.07 0.14,0.27 0.19,0.34l1.4 1.07c6.61,3.93 4.58,5.09 -1.14,15.84 -1.19,2.23 -1.72,3.68 -3.45,3.94 -4.42,0.68 -2.24,-2.87 -2.35,-3.7 -0.12,-0.83 2.11,-1.02 -1.35,-1.85 -3.16,-0.76 -1.36,-0.02 -2.29,0.89 -2.71,2.67 0.6,2.76 -5.29,2.71z"/>
   <path class="fil17" d="M520.05 37.86l1.58 0.4c-0.22,0 -0.65,0.01 -0.77,-0.03 -0.7,-0.2 -0.44,-0.13 -0.81,-0.37zm-11.88 -7.12c0,2.77 3.96,5.43 3.96,0.4 0,-3.33 -3.96,-4.01 -3.96,-0.4zm12.67 -9.89c4.94,0 8.97,-0.4 13.46,-0.4 -0.42,-1.57 -2.09,-1.98 -3.96,-1.98 -2.29,0 -7.69,0.8 -9.5,2.38zm-32.87 -15.84c2.08,0.49 1.71,1 3.17,1.98 1.65,-0.87 9.91,-5.66 10.69,-6.73 -1.83,-1.52 -13.33,4.04 -13.86,4.75zm78.01 17.81l0.4 0.4c7.08,3.78 6.72,2.02 11.21,-0.26l7.67 -4.22c1.35,-0.64 1.95,-0.47 2.1,-2.25 -2.17,-1.04 -6.68,0.13 -9.03,0.87l-12.35 5.46zm-70.09 7.92l0 0zm0.4 -0.4l-0.4 0.4 0.4 -0.4zm46.72 -0.39c0,-2.66 2.24,-3.05 3.96,-3.96 0.38,1.62 1.15,4.58 1.19,6.33 -1.76,-0.04 -5.15,-1 -5.15,-2.37zm-45.93 0l-0.79 0.39 0.79 -0.39zm30.09 -0.79c0,-1.47 0.24,-1.34 1.19,-1.98 3.48,2.33 -1.19,4.84 -1.19,1.98zm-4.35 1.18l-1.19 0c0,-1.92 -0.27,-2.77 1.19,-2.77 1.69,0 1.69,2.77 0,2.77zm-25.74 -0.39l0 0zm36.03 0.39c-1.77,-3.15 1.98,-4.71 1.98,-1.58 0,1.27 -0.75,1.48 -1.98,1.58zm-35.24 -1.18l0.12 0.11c-0.01,0 -0.16,-0.07 -0.12,-0.11zm0.79 -0.4l0.12 0.12c-0.01,-0.01 -0.16,-0.08 -0.12,-0.12zm1.59 -0.4l-0.77 0.46 0.77 -0.46zm1.19 -0.39c-0.44,0.4 0.69,0.39 -1.19,0.39 0.43,-0.4 -0.7,-0.39 1.19,-0.39zm1.58 -0.4c-0.08,0.06 -0.19,0.06 -0.24,0.16 -0.04,0.11 -0.2,0.12 -0.26,0.13 -0.53,0.12 -0.52,0.11 -1.08,0.11 0.07,-0.05 0.19,-0.24 0.23,-0.16 0.05,0.08 0.2,-0.12 0.27,-0.13 0.53,-0.12 0.51,-0.11 1.08,-0.11zm0 0c0.42,-0.27 0.01,-0.22 0.83,-0.36 0.36,-0.06 0.78,-0.03 1.15,-0.03l0 0.39 -1.98 0zm6.73 7.92c-0.68,-2.56 -4.14,-2.74 -1.19,-8.31l-2.77 -0.4c3.73,0 5.63,-0.03 6.77,2.74 1.18,2.9 0.29,5.71 -2.81,5.97zm40.39 -3.17c-1.11,-1.65 -1.58,-4.24 -1.58,-6.33 0,-1.96 6.19,-3.43 6.6,-3.36 0.58,0.1 2.49,1.5 3.14,1.94 1.09,0.72 2.26,1.3 2.93,2.21 -3.49,1.67 -4.3,1.24 -8.15,4.13 -1.18,0.89 -1.14,1.26 -2.94,1.41zm-54.64 -6.73c-0.54,0.41 0.83,0.4 -1.19,0.4 0.48,-0.37 -0.45,-0.26 1.19,-0.4zm60.98 -3.56c2.86,0 2.99,0.42 5.03,1.3 1.59,0.68 3.17,1.03 4.07,2.26 -3.62,0.31 -1.87,1.48 -4.91,-0.62l-4.19 -2.94zm-70.88 -12.66l0.77 -0.46 -0.77 0.46zm0 0l-2.21 0.96c-1.05,0.34 -1.4,0.53 -2.55,0.62l10.7 15.44c-0.48,1.79 -0.95,0.56 -0.79,2.72 0.14,1.83 3.97,5.32 5.39,6.13 4.11,2.32 10.3,0.32 13.61,0.25l-8.31 1.58c0.92,1.26 4.07,2.08 5.61,2.7l5.47 2.85c5.74,2.88 8.09,-0.67 13.86,-0.8 -0.31,0.21 -0.2,0.19 -0.76,0.42 -0.67,0.28 -0.24,0.12 -0.89,0.31l-62.1 17.87c2.49,3.4 17.33,-1.77 21.38,-2.77l52.63 -13.5c2.67,-0.53 9.15,-1.38 11.12,-2.33 -2.61,-3.9 -16.17,-3.96 -23.36,-3.96l0 -0.39c7.56,0 16.76,-1 23.72,1.63 1.56,0.59 1.51,0.78 2.75,1.63 1.36,0.93 1.29,0.43 3.21,0.31 4.6,-0.27 27.2,-0.44 28.53,-5.55 -0.29,-3.49 -3.53,-5.52 -6.2,-6.87 -2.92,-1.49 -6.37,-2.56 -9.31,-3.75 -2.4,-0.97 -5.54,-3.33 -9.45,-3.62 -8.54,-0.64 -11.63,0.42 -19.39,0.38 -4.57,-0.02 -13.23,0.83 -19.4,0.8 -7.77,-0.05 -19.15,3.16 -23.36,3.16l0.53 -0.25c1.17,-0.45 8.34,-2.12 10.95,-2.12 -0.37,-1.37 -0.93,-1.1 -2.87,-3.07l-11.48 -10.69c-5.47,-4.81 -2.02,-4.35 -11.41,-3.68 -3.08,0.22 -4.27,-1.04 -4.33,2l5.14 0.4c-4.7,0 -11.56,2.48 -16.15,3.65 -5.22,1.32 -10.49,3 -15.92,4.27 0.3,0.21 0.17,0.21 0.75,0.43 1.21,0.49 2.17,0.39 3.61,0.38 3.73,-0.02 18.04,-4.18 22.34,-5.4 1.89,-0.54 7.34,-2.11 8.94,-2.14z"/>
  </g>
 </g>
</svg>
